Coordinates
version=1
nRows=28
nColumns=38
inDegrees=no

Units are S.I. units (second, meters, Newtons, ...)
If the header above contains a line with 'inDegrees', this indicates whether rotational values are in degrees (yes) or radians (no).

endheader
time	pelvis_tilt	pelvis_list	pelvis_rotation	pelvis_tx	pelvis_ty	pelvis_tz	hip_flexion_r	hip_adduction_r	hip_rotation_r	knee_angle_r	ankle_angle_r	subtalar_angle_r	mtp_angle_r	hip_flexion_l	hip_adduction_l	hip_rotation_l	knee_angle_l	ankle_angle_l	subtalar_angle_l	mtp_angle_l	lumbar_extension	lumbar_bending	lumbar_rotation	arm_flex_r	arm_add_r	arm_rot_r	elbow_flex_r	pro_sup_r	wrist_flex_r	wrist_dev_r	arm_flex_l	arm_add_l	arm_rot_l	elbow_flex_l	pro_sup_l	wrist_flex_l	wrist_dev_l
0	0.672238	1.43659	1.06203	0.635755	0.418546	1.00459	0.644058	0.0304867	-0.131846	0.642619	0.124195	0	0	0.00157275	-0.17427	-0.233485	0.700906	0.189051	0	0	0.118808	0.164525	-0.215391	-0.225039	-0.260549	1.1866	0.235557	0.710765	0	0	0.229823	-0.373342	0.53048	0.69917	1.52845	0	0
0.01	0.726293	1.43527	1.00341	0.636605	0.430168	1.00513	0.639182	0.0412218	-0.12913	0.652022	0.105956	0	0	0.00413625	-0.18315	-0.225906	0.730655	0.176842	0	0	0.117704	0.17477	-0.203951	-0.225356	-0.262117	1.19212	0.233971	0.699083	0	0	0.229411	-0.364377	0.541833	0.689777	1.53309	0	0
0.02	0.785514	1.43578	0.937476	0.637507	0.44273	1.00632	0.630262	0.0513958	-0.132257	0.661795	0.0899406	0	0	0.00366145	-0.191816	-0.222748	0.759478	0.157513	0	0	0.113138	0.185733	-0.194752	-0.223258	-0.265288	1.19746	0.232447	0.688213	0	0	0.222072	-0.357477	0.54689	0.685356	1.53515	0	0
0.03	0.834115	1.43586	0.881867	0.638437	0.455312	1.00768	0.62197	0.0602471	-0.136301	0.672054	0.0793598	0	0	0.00683023	-0.198643	-0.216444	0.790941	0.13403	0	0	0.108918	0.19556	-0.186509	-0.219348	-0.268912	1.20418	0.230838	0.679231	0	0	0.212186	-0.351026	0.549105	0.682114	1.53623	0	0
0.04	0.869165	1.43559	0.839501	0.639409	0.467758	1.00905	0.614315	0.0680969	-0.138492	0.681393	0.0719281	0	0	0.0145456	-0.203441	-0.20725	0.825478	0.107141	0	0	0.105309	0.203803	-0.178012	-0.214001	-0.272657	1.21223	0.229273	0.671994	0	0	0.201336	-0.344943	0.550773	0.679354	1.53689	0	0
0.05	0.890633	1.43493	0.81026	0.640468	0.480039	1.01033	0.606445	0.0759901	-0.137551	0.688203	0.0646809	0	0	0.0270413	-0.206658	-0.195895	0.863108	0.0769951	0	0	0.102578	0.210515	-0.168817	-0.207521	-0.276353	1.22098	0.227858	0.666309	0	0	0.190152	-0.339318	0.552927	0.676562	1.5382	0	0
0.06	0.89653	1.43269	0.797466	0.641813	0.49227	1.01141	0.599015	0.0839938	-0.136159	0.691803	0.0596088	0	0	0.0456749	-0.209809	-0.181085	0.903765	0.0435089	0	0	0.103123	0.215706	-0.160895	-0.200562	-0.279115	1.23019	0.225837	0.662204	0	0	0.178273	-0.334753	0.556352	0.673176	1.53962	0	0
0.07	0.895082	1.42977	0.794194	0.64316	0.504232	1.01236	0.591381	0.0905256	-0.138412	0.69362	0.0587371	0	0	0.0691249	-0.212069	-0.161645	0.94653	0.00917579	0	0	0.105016	0.21983	-0.154893	-0.192537	-0.281294	1.23835	0.223874	0.658315	0	0	0.167046	-0.33088	0.561558	0.669245	1.54083	0	0
0.08	0.894503	1.42645	0.792574	0.644279	0.515759	1.01325	0.583457	0.0955742	-0.144416	0.694786	0.0613902	0	0	0.0961444	-0.213309	-0.137631	0.991131	-0.0219756	0	0	0.106648	0.223888	-0.150347	-0.183158	-0.2836	1.24461	0.222756	0.654226	0	0	0.157956	-0.326969	0.569339	0.664223	1.54215	0	0
0.09	0.896309	1.42272	0.789819	0.645195	0.52685	1.01408	0.575479	0.100305	-0.15061	0.695344	0.0654773	0	0	0.125326	-0.21361	-0.1109	1.03672	-0.048057	0	0	0.107546	0.228292	-0.145946	-0.172504	-0.2865	1.24826	0.222749	0.650627	0	0	0.151196	-0.322636	0.579387	0.657858	1.54418	0	0
0.1	0.897751	1.41868	0.787793	0.645998	0.537569	1.01487	0.567455	0.105398	-0.15452	0.69548	0.0710218	0	0	0.155946	-0.212969	-0.0836064	1.08223	-0.0742887	0	0	0.108107	0.232708	-0.141217	-0.160694	-0.289922	1.24933	0.223878	0.646634	0	0	0.146339	-0.318051	0.591836	0.649964	1.54607	0	0
0.11	0.903254	1.41577	0.781493	0.646762	0.548054	1.01581	0.557479	0.110682	-0.15533	0.695122	0.0780684	0	0	0.185735	-0.211622	-0.0588174	1.1265	-0.102272	0	0	0.106759	0.236554	-0.135622	-0.147754	-0.293677	1.24738	0.226098	0.641727	0	0	0.143049	-0.313435	0.605989	0.640504	1.54657	0	0
0.12	0.913738	1.41503	0.769845	0.647509	0.55843	1.01705	0.54433	0.11533	-0.154037	0.693841	0.0865787	0	0	0.213301	-0.209453	-0.0382808	1.1683	-0.133206	0	0	0.102727	0.239169	-0.128717	-0.134032	-0.297637	1.24178	0.229368	0.635901	0	0	0.141615	-0.308578	0.622732	0.628897	1.54498	0	0
0.13	0.925928	1.41657	0.755968	0.648226	0.568716	1.01855	0.528475	0.11855	-0.151733	0.691531	0.0945515	0	0	0.238404	-0.205919	-0.022044	1.20687	-0.158971	0	0	0.0965069	0.239975	-0.12096	-0.119184	-0.301233	1.23566	0.232335	0.631119	0	0	0.140421	-0.303134	0.637734	0.616003	1.54406	0	0
0.14	0.933712	1.41938	0.745753	0.648946	0.578903	1.02019	0.511384	0.120752	-0.148023	0.687422	0.102648	0	0	0.262412	-0.200807	-0.00915696	1.2415	-0.178175	0	0	0.0896713	0.239003	-0.11194	-0.103871	-0.304995	1.22824	0.235951	0.62743	0	0	0.13953	-0.297586	0.652846	0.601911	1.54198	0	0
0.15	0.934483	1.42269	0.741688	0.649705	0.589012	1.02182	0.494296	0.122389	-0.143318	0.681967	0.109462	0	0	0.285895	-0.194549	0.000782913	1.27214	-0.184745	0	0	0.083393	0.236539	-0.102488	-0.0878168	-0.308726	1.22198	0.239626	0.625222	0	0	0.137384	-0.2921	0.664775	0.587826	1.53939	0	0
0.16	0.92629	1.42601	0.745797	0.650512	0.599082	1.02339	0.478461	0.123388	-0.13854	0.676686	0.116365	0	0	0.30947	-0.18765	0.00821152	1.29893	-0.180391	0	0	0.0782926	0.232911	-0.0922047	-0.0717498	-0.313062	1.2145	0.24456	0.624149	0	0	0.134741	-0.28666	0.675629	0.573513	1.53393	0	0
0.17	0.909305	1.42902	0.758053	0.651377	0.609111	1.02488	0.464067	0.124053	-0.133292	0.671583	0.122831	0	0	0.333602	-0.181133	0.0122373	1.32232	-0.166554	0	0	0.0745843	0.228434	-0.0814436	-0.0555456	-0.317892	1.20709	0.250405	0.62569	0	0	0.131361	-0.281426	0.685799	0.559335	1.52698	0	0
0.18	0.900136	1.4305	0.76081	0.652643	0.619269	1.02615	0.449745	0.128112	-0.126452	0.665802	0.128739	0	0	0.357348	-0.180342	0.00981064	1.3434	-0.145512	0	0	0.0713813	0.22545	-0.0694424	-0.0393503	-0.323522	1.20023	0.258037	0.630741	0	0	0.126181	-0.277818	0.694803	0.548247	1.51898	0	0
0.19	0.889732	1.43248	0.763828	0.653975	0.629414	1.0274	0.435006	0.13193	-0.118835	0.659476	0.134921	0	0	0.38	-0.180009	0.00424536	1.36109	-0.115495	0	0	0.0678629	0.221886	-0.0567541	-0.0240835	-0.331135	1.18505	0.270239	0.642138	0	0	0.120923	-0.275208	0.70595	0.537864	1.50549	0	0
0.2	0.876619	1.43534	0.76932	0.655306	0.63951	1.02865	0.420027	0.134257	-0.11273	0.653462	0.139014	0	0	0.40191	-0.179543	-0.0036535	1.37414	-0.0934788	0	0	0.0644432	0.217043	-0.0458914	-0.00713189	-0.337731	1.1755	0.280579	0.65042	0	0	0.112989	-0.273126	0.70972	0.529033	1.49625	0	0
0.21	0.867274	1.43917	0.770192	0.656672	0.64962	1.02991	0.403266	0.136122	-0.106424	0.646347	0.144206	0	0	0.421788	-0.180144	-0.0146491	1.38333	-0.067013	0	0	0.0596314	0.211938	-0.0343743	0.00813633	-0.347508	1.15313	0.298239	0.664685	0	0	0.104913	-0.271504	0.713764	0.52091	1.48269	0	0
0.22	0.855022	1.4431	0.773967	0.658067	0.659759	1.03111	0.386584	0.136953	-0.102261	0.639648	0.148497	0	0	0.441553	-0.18163	-0.0270236	1.38782	-0.0514749	0	0	0.0555779	0.206201	-0.0242596	0.0248931	-0.355589	1.13956	0.312946	0.675188	0	0	0.0949543	-0.270178	0.712791	0.513653	1.47369	0	0
0.23	0.849752	1.4473	0.770093	0.659502	0.669891	1.03227	0.367871	0.13832	-0.0972109	0.630913	0.154472	0	0	0.459292	-0.185378	-0.0413142	1.38802	-0.0346063	0	0	0.0502134	0.201153	-0.0134406	0.0389287	-0.367492	1.11309	0.336341	0.695638	0	0	0.0847963	-0.268603	0.710511	0.506788	1.46115	0	0
0.24	0.852309	1.45183	0.758656	0.660843	0.679932	1.03339	0.347854	0.13953	-0.0925203	0.621761	0.159927	0	0	0.475248	-0.190396	-0.0556251	1.38365	-0.0215577	0	0	0.0437432	0.196544	-0.00341135	0.0523537	-0.37979	1.08339	0.361287	0.717892	0	0	0.0743167	-0.266964	0.706064	0.500538	1.44981	0	0
0.25	0.865513	1.45644	0.737603	0.662085	0.690145	1.03448	0.326152	0.140741	-0.0897668	0.611685	0.165575	0	0	0.488999	-0.197158	-0.0704551	1.37486	-0.00886755	0	0	0.0360574	0.192702	0.00711222	0.0602417	-0.393892	1.0345	0.39268	0.752473	0	0	0.0645034	-0.26485	0.701408	0.494104	1.43853	0	0
0.26	0.877902	1.46189	0.714456	0.663526	0.700392	1.03551	0.304893	0.141621	-0.0833549	0.6042	0.171099	0	0	0.499523	-0.206115	-0.0913425	1.36106	0.00180456	0	0	0.0281717	0.187958	0.019046	0.0704658	-0.405806	1.00053	0.41959	0.776387	0	0	0.0534904	-0.26273	0.694	0.487674	1.42969	0	0
0.27	0.913493	1.46915	0.665464	0.665061	0.710554	1.03663	0.27977	0.14282	-0.0737984	0.59445	0.176244	0	0	0.504274	-0.217965	-0.118781	1.34323	0.0140741	0	0	0.014267	0.183563	0.0380213	0.0697677	-0.420993	0.928683	0.458968	0.825265	0	0	0.0463282	-0.259777	0.689738	0.481394	1.42091	0	0
